# xmcd
#
# Track frame offsets:
#	150
#	14665
#	29188
#	41740
#	56083
#	70033
#	82430
#	95843
#	110625
#	124858
#
# Disc length: 1774 seconds
#
# Revision: 2
# Processed by: cddbd v1.4PL0 Copyright (c) Steve Scherf et al.
# Submitted via: EasyCDDAExtractor 5.1.0
#
DISCID=9c06ec0a
DTITLE=Ernest Tubb and Friends - Disk 4 of 5 - Rainbow at Midnight
DYEAR=1992
DGENRE=Country
TTITLE0=Give Me an Old Fashion Love
TTITLE1=When the World has Turned You Down (with Vern Goddin)
TTITLE2=You Nealy Lose You Mind (with Willie Nelson)
TTITLE3=Filipino Baby (with George Jones)
TTITLE4=Seaman's Blues (with Merle Haggard)
TTITLE5=Journey's End (with Marty Robbins and Wilburn Brothers)
TTITLE6=Blue Eyed Elaine (with Justin Tubb)
TTITLE7=Rainbow at Midnight (with Marty Robbins)
TTITLE8=Tomarrow Never Comes (with B. J. Thomas)
TTITLE9=I Ain't Been Right Since You Went Wrong
EXTD=LaserLight Digital\nCopyright 1992 Delta Music Inc.\n\nGuest Artists: Ver
EXTD=n Gosdin, Merle Haggard, George Jones, Willie Nelson, Marty Robbins, B. J
EXTD=Thomas, Justin Tubb, and Wilburn Brothers
EXTT0=
EXTT1=
EXTT2=
EXTT3=
EXTT4=
EXTT5=
EXTT6=
EXTT7=
EXTT8=
EXTT9=
PLAYORDER=
